<?xml version="1.0" encoding="UTF-8"?>
<svg id="Layer_1" data-name="Layer 1" xmlns="http://www.w3.org/2000/svg" viewBox="0 0 1080 454.36">
  <defs>
    <style>
      .cls-1 {
        fill: #fff;
      }
    </style>
  </defs>
  <g>
    <path class="cls-1" d="M164.28,107.56c-60.22,0-109.02,48.8-109.02,109s48.8,109,109.02,109c21.33,0,41.24-6.13,58.04-16.72l-26.71-26.71c-9.49,4.55-20.11,7.1-31.33,7.1-40.14,0-72.68-32.54-72.68-72.66s32.54-72.66,72.68-72.66,72.66,32.54,72.66,72.66c0,11.22-2.54,21.86-7.1,31.34l26.7,26.7c10.61-16.8,16.74-36.71,16.74-58.04,0-60.2-48.8-109-109-109Z"/>
    <path class="cls-1" d="M289.23,341.5c-3.53,3.54-8.15,5.3-12.78,5.3s-9.26-1.76-12.78-5.3l-36.16-36.15-26.24-26.25-11.3-11.28c-7.05-7.07-7.05-18.51,0-25.56,3.54-3.54,8.17-5.3,12.78-5.3s9.26,1.76,12.78,5.3l11.3,11.3,26.25,26.24,36.15,36.15c7.05,7.07,7.05,18.5,0,25.56Z"/>
  </g>
  <g>
    <path class="cls-1" d="M329.15,268.99c0,4.18.76,8.09,2.27,11.74,1.51,3.65,3.61,6.82,6.27,9.53,2.66,2.7,5.82,4.83,9.46,6.39,3.64,1.56,7.56,2.34,11.74,2.34s8.07-.8,11.43-2.4c3.36-1.6,6.2-3.77,8.54-6.51,2.34-2.74,4.14-5.96,5.41-9.65,1.27-3.69,1.9-7.62,1.9-11.8v-45.47c0-1.88.37-3.62,1.11-5.22.74-1.6,1.74-2.99,3.01-4.18,1.27-1.19,2.72-2.13,4.36-2.83,1.64-.69,3.36-1.04,5.16-1.04s3.6.35,5.16,1.04c1.55.7,2.93,1.64,4.12,2.83,1.19,1.19,2.11,2.58,2.77,4.18.65,1.6.98,3.34.98,5.22v45.1c0,7.86-1.33,15.28-3.99,22.24-2.66,6.97-6.37,13.05-11.12,18.25-4.75,5.2-10.45,9.32-17.08,12.35-6.64,3.03-13.89,4.55-21.75,4.55s-15.22-1.49-22.06-4.49c-6.84-2.99-12.8-7.07-17.88-12.23-5.08-5.16-9.09-11.18-12.04-18.06-2.95-6.88-4.42-14.22-4.42-22v-45.72c0-1.88.35-3.62,1.04-5.22.69-1.6,1.64-2.99,2.83-4.18,1.19-1.19,2.6-2.13,4.24-2.83,1.64-.69,3.36-1.04,5.16-1.04s3.52.35,5.16,1.04c1.64.7,3.07,1.64,4.3,2.83,1.23,1.19,2.19,2.58,2.89,4.18.7,1.6,1.05,3.34,1.05,5.22v45.84Z"/>
    <path class="cls-1" d="M429.19,267.02c0-8.11,1.56-15.71,4.67-22.8,3.11-7.09,7.33-13.29,12.66-18.62,5.32-5.32,11.53-9.52,18.62-12.6,7.08-3.07,14.64-4.61,22.67-4.61s15.73,1.53,22.86,4.61c7.13,3.07,13.33,7.27,18.62,12.6,5.29,5.33,9.44,11.53,12.48,18.62,3.03,7.09,4.55,14.69,4.55,22.8v43.5c0,1.89-.35,3.65-1.05,5.29-.7,1.64-1.66,3.07-2.89,4.3-1.23,1.23-2.68,2.21-4.36,2.95-1.68.74-3.46,1.11-5.35,1.11-3.2,0-5.9-.94-8.11-2.83-2.21-1.88-3.69-4.26-4.42-7.13-4.67,3.52-9.73,6.31-15.18,8.36-5.45,2.05-11.16,3.07-17.14,3.07-8.03,0-15.59-1.54-22.67-4.61-7.09-3.07-13.3-7.27-18.62-12.6-5.33-5.32-9.55-11.55-12.66-18.68-3.11-7.13-4.67-14.71-4.67-22.74ZM455.86,267.02c0,4.34.84,8.46,2.52,12.35,1.68,3.89,3.97,7.29,6.88,10.2,2.91,2.91,6.29,5.2,10.14,6.88,3.85,1.68,7.99,2.52,12.41,2.52s8.58-.84,12.47-2.52c3.89-1.68,7.27-3.97,10.14-6.88,2.86-2.91,5.12-6.31,6.76-10.2,1.64-3.89,2.46-8.01,2.46-12.35s-.82-8.58-2.46-12.47c-1.64-3.89-3.89-7.27-6.76-10.14-2.87-2.86-6.25-5.14-10.14-6.82-3.89-1.68-8.05-2.52-12.47-2.52s-8.46.84-12.35,2.52c-3.89,1.68-7.29,3.95-10.2,6.82-2.91,2.87-5.2,6.25-6.88,10.14-1.68,3.89-2.52,8.05-2.52,12.47Z"/>
    <path class="cls-1" d="M611.56,297.5c1.88,0,3.64.37,5.28,1.11,1.64.74,3.03,1.74,4.18,3.01,1.15,1.27,2.05,2.73,2.7,4.36.66,1.64.98,3.36.98,5.16,0,3.77-1.23,6.88-3.69,9.34-2.46,2.46-5.61,3.68-9.46,3.68-5.57,0-10.8-.94-15.67-2.83-4.88-1.88-9.16-4.5-12.84-7.86-3.69-3.36-6.6-7.41-8.73-12.17-2.13-4.75-3.28-9.99-3.44-15.73v-106.43c0-1.88.35-3.65,1.05-5.29.7-1.64,1.62-3.05,2.76-4.24,1.15-1.19,2.5-2.13,4.06-2.83,1.56-.7,3.23-1.05,5.04-1.05s3.64.35,5.28,1.05c1.64.7,3.09,1.64,4.36,2.83,1.27,1.19,2.28,2.6,3.01,4.24.74,1.64,1.11,3.4,1.11,5.29v105.57c0,4.26,1.31,7.46,3.93,9.59,2.62,2.13,5.98,3.19,10.08,3.19Z"/>
    <path class="cls-1" d="M642.04,182.72c0-2.05.39-3.97,1.17-5.77.78-1.8,1.82-3.36,3.13-4.67,1.31-1.31,2.87-2.35,4.67-3.13,1.8-.78,3.69-1.17,5.65-1.17s3.85.39,5.65,1.17c1.8.78,3.38,1.82,4.73,3.13,1.35,1.31,2.41,2.87,3.19,4.67.78,1.8,1.17,3.73,1.17,5.77s-.39,3.83-1.17,5.59c-.78,1.76-1.84,3.3-3.19,4.61-1.35,1.31-2.93,2.36-4.73,3.13-1.8.78-3.69,1.17-5.65,1.17s-3.85-.39-5.65-1.17c-1.8-.78-3.36-1.82-4.67-3.13-1.31-1.31-2.35-2.85-3.13-4.61-.78-1.76-1.17-3.62-1.17-5.59ZM670.06,310.9c0,1.8-.35,3.52-1.05,5.16-.7,1.64-1.64,3.05-2.83,4.24-1.19,1.19-2.58,2.13-4.18,2.83-1.6.7-3.34,1.04-5.22,1.04s-3.52-.35-5.16-1.04c-1.64-.69-3.07-1.64-4.3-2.83-1.23-1.19-2.19-2.6-2.89-4.24-.7-1.64-1.04-3.36-1.04-5.16v-87.75c0-1.8.37-3.5,1.11-5.1.74-1.6,1.72-3.01,2.95-4.24,1.23-1.23,2.66-2.19,4.3-2.89,1.64-.69,3.4-1.04,5.29-1.04s3.6.35,5.16,1.04c1.55.7,2.93,1.66,4.12,2.89,1.19,1.23,2.11,2.64,2.77,4.24.65,1.6.98,3.3.98,5.1v87.75Z"/>
    <path class="cls-1" d="M757.68,166.86c8.19,0,15.85,1.54,22.98,4.61,7.13,3.07,13.35,7.25,18.68,12.54,5.32,5.28,9.53,11.51,12.6,18.68,3.07,7.17,4.61,14.81,4.61,22.92s-1.54,15.69-4.61,22.74c-3.07,7.05-7.27,13.21-12.6,18.5-5.33,5.29-11.57,9.44-18.74,12.48-7.17,3.03-14.85,4.55-23.04,4.55h-31.58v27.16c0,1.81-.35,3.53-1.04,5.16-.7,1.64-1.66,3.03-2.89,4.18-1.23,1.15-2.64,2.07-4.24,2.76-1.6.7-3.34,1.04-5.22,1.04s-3.52-.35-5.16-1.04c-1.64-.69-3.05-1.62-4.24-2.76-1.19-1.15-2.13-2.54-2.83-4.18-.7-1.64-1.04-3.36-1.04-5.16v-130.76c0-1.88.35-3.65,1.04-5.29.7-1.64,1.64-3.05,2.83-4.24,1.19-1.19,2.6-2.13,4.24-2.83,1.64-.7,3.36-1.05,5.16-1.05h45.1ZM725.98,193.53v63.66h32.07c4.43,0,8.58-.86,12.48-2.58,3.89-1.72,7.27-4.03,10.14-6.94,2.86-2.91,5.12-6.27,6.76-10.08,1.64-3.81,2.46-7.8,2.46-11.98s-.84-8.19-2.52-12.04c-1.68-3.85-3.95-7.27-6.82-10.26-2.87-2.99-6.23-5.37-10.08-7.13-3.85-1.76-7.99-2.64-12.41-2.64h-32.07Z"/>
    <path class="cls-1" d="M854.53,311.02c0,1.81-.33,3.53-.98,5.16-.66,1.64-1.58,3.03-2.76,4.18-1.19,1.15-2.56,2.07-4.12,2.76-1.56.7-3.24,1.04-5.04,1.04s-3.67-.35-5.35-1.04c-1.68-.69-3.13-1.62-4.36-2.76-1.23-1.15-2.21-2.54-2.95-4.18-.74-1.64-1.11-3.36-1.11-5.16v-39.69c0-8.44,1.62-16.39,4.85-23.84,3.24-7.45,7.64-13.97,13.21-19.54,5.57-5.57,12.08-9.97,19.54-13.21,7.45-3.24,15.36-4.85,23.72-4.85h.25c4.43,0,7.85,1.25,10.26,3.75,2.41,2.5,3.62,5.67,3.62,9.52,0,1.88-.37,3.65-1.11,5.28-.74,1.64-1.74,3.05-3.01,4.24-1.27,1.19-2.75,2.13-4.43,2.83-1.68.7-3.46,1.05-5.35,1.05h-.25c-4.67,0-9.11.9-13.33,2.7-4.22,1.8-7.89,4.26-11,7.37-3.11,3.12-5.61,6.76-7.5,10.94-1.88,4.18-2.83,8.65-2.83,13.4v40.06Z"/>
    <path class="cls-1" d="M907.62,267.02c0-8.11,1.55-15.71,4.67-22.8,3.11-7.09,7.33-13.29,12.66-18.62,5.33-5.32,11.53-9.52,18.62-12.6,7.09-3.07,14.64-4.61,22.68-4.61s15.73,1.53,22.86,4.61c7.13,3.07,13.33,7.27,18.62,12.6,5.28,5.33,9.44,11.53,12.47,18.62,3.03,7.09,4.55,14.69,4.55,22.8s-1.52,15.61-4.55,22.74c-3.03,7.13-7.19,13.36-12.47,18.68-5.28,5.33-11.49,9.53-18.62,12.6-7.13,3.07-14.75,4.61-22.86,4.61s-15.59-1.54-22.68-4.61c-7.09-3.07-13.29-7.27-18.62-12.6-5.32-5.32-9.54-11.55-12.66-18.68-3.11-7.13-4.67-14.71-4.67-22.74ZM934.29,267.02c0,4.34.84,8.46,2.52,12.35,1.68,3.89,3.97,7.29,6.88,10.2,2.91,2.91,6.29,5.2,10.14,6.88,3.85,1.68,7.99,2.52,12.41,2.52s8.58-.84,12.47-2.52c3.89-1.68,7.27-3.97,10.14-6.88,2.87-2.91,5.12-6.31,6.76-10.2,1.64-3.89,2.46-8.01,2.46-12.35s-.82-8.58-2.46-12.47c-1.64-3.89-3.89-7.27-6.76-10.14-2.87-2.86-6.25-5.14-10.14-6.82-3.89-1.68-8.05-2.52-12.47-2.52s-8.46.84-12.35,2.52c-3.89,1.68-7.29,3.95-10.2,6.82-2.91,2.87-5.2,6.25-6.88,10.14-1.68,3.89-2.52,8.05-2.52,12.47Z"/>
  </g>
</svg>