<?xml version="1.0" encoding="UTF-8"?>
<svg id="Layer_1" data-name="Layer 1" xmlns="http://www.w3.org/2000/svg" viewBox="0 0 374.42 454.36">
  <defs>
    <style>
      .cls-1 {
        fill: #02024f;
      }

      .cls-2 {
        fill: #00d3a9;
      }
    </style>
  </defs>
  <path class="cls-1" d="M176.6,107.56c-60.22,0-109.02,48.8-109.02,109s48.8,109,109.02,109c21.33,0,41.24-6.13,58.04-16.72l-26.71-26.71c-9.49,4.55-20.11,7.1-31.33,7.1-40.14,0-72.68-32.54-72.68-72.66s32.54-72.66,72.68-72.66,72.66,32.54,72.66,72.66c0,11.22-2.54,21.86-7.1,31.34l26.7,26.7c10.61-16.8,16.74-36.71,16.74-58.04,0-60.2-48.8-109-109-109Z"/>
  <path class="cls-2" d="M301.55,341.5c-3.53,3.54-8.15,5.3-12.78,5.3s-9.26-1.76-12.78-5.3l-36.16-36.15-26.24-26.25-11.3-11.28c-7.05-7.07-7.05-18.51,0-25.56,3.54-3.54,8.17-5.3,12.78-5.3s9.26,1.76,12.78,5.3l11.3,11.3,26.25,26.24,36.15,36.15c7.05,7.07,7.05,18.5,0,25.56Z"/>
</svg>